<svg width="24" height="10" viewBox="0 0 24 10" fill="none" xmlns="http://www.w3.org/2000/svg">
<path d="M13.8789 0.699853C13.9344 0.69955 13.9899 0.699247 14.047 0.698935C14.1089 0.698779 14.1707 0.698627 14.2326 0.69848C14.2975 0.698202 14.3623 0.697911 14.4272 0.697607C14.6406 0.696684 14.8539 0.696145 15.0673 0.695643C15.1407 0.695454 15.2141 0.695265 15.2875 0.695075C15.5928 0.694313 15.8982 0.693653 16.2035 0.693256C16.6413 0.692684 17.079 0.691516 17.5168 0.689509C17.8245 0.688147 18.1322 0.687458 18.4399 0.687272C18.6237 0.687143 18.8076 0.686719 18.9914 0.685578C19.1644 0.68452 19.3373 0.684296 19.5103 0.684711C19.5737 0.684719 19.6372 0.684425 19.7006 0.683808C19.7873 0.683009 19.874 0.683405 19.9607 0.68386C20.0334 0.683685 20.0334 0.683685 20.1076 0.683506C20.2806 0.712397 20.3468 0.774997 20.4586 0.881366C20.5272 0.99088 20.5153 1.07728 20.5027 1.19833C20.3818 1.3657 20.2318 1.49376 20.0597 1.62693C20.0204 1.65782 20.0204 1.65782 19.9803 1.68933C19.9237 1.73373 19.8671 1.77806 19.8103 1.82232C19.7205 1.89245 19.631 1.96287 19.5416 2.03339C19.2876 2.23374 19.0333 2.4338 18.778 2.63313C18.6216 2.75531 18.4658 2.87801 18.3104 3.00105C18.2512 3.04774 18.1918 3.09423 18.1321 3.14052C18.0486 3.20525 17.966 3.2706 17.8836 3.33614C17.8465 3.36445 17.8465 3.36445 17.8086 3.39333C17.6939 3.48588 17.6346 3.55707 17.5856 3.68191C17.5943 3.91739 17.8215 4.06974 18.0221 4.22748C18.0475 4.24769 18.0728 4.26791 18.0989 4.28874C18.1835 4.35606 18.2683 4.42313 18.3531 4.4902C18.414 4.53856 18.4748 4.58694 18.5356 4.63534C18.6663 4.73932 18.7972 4.8432 18.9281 4.947C19.1351 5.11106 19.3417 5.27541 19.5483 5.43981C20.0612 5.84796 20.5746 6.25579 21.0881 6.66345C21.4876 6.98053 21.8869 7.29772 22.2857 7.61529C22.4911 7.77882 22.6969 7.94211 22.9028 8.10521C23.0307 8.20656 23.1582 8.30813 23.2857 8.40976C23.345 8.45693 23.4044 8.50401 23.4639 8.55099C23.545 8.615 23.6256 8.67933 23.7062 8.74374C23.73 8.76237 23.7537 8.781 23.7783 8.8002C23.9497 8.93832 23.9822 9.01587 24 9.20399C23.9869 9.35832 23.9469 9.44421 23.8566 9.58039C23.7026 9.66229 23.6413 9.65999 23.4593 9.66095C23.404 9.6614 23.3486 9.66186 23.2916 9.66232C23.2301 9.66247 23.1686 9.6626 23.1071 9.66273C23.0424 9.66311 22.9778 9.66353 22.9131 9.66396C22.7373 9.66504 22.5615 9.66564 22.3857 9.66608C22.2758 9.66637 22.1659 9.66673 22.0561 9.6671C21.7121 9.66826 21.3681 9.6691 21.0242 9.66953C20.6274 9.67003 20.2307 9.67157 19.8339 9.67402C19.5271 9.67584 19.2202 9.67672 18.9134 9.67688C18.7302 9.677 18.5471 9.67752 18.3639 9.67904C18.1914 9.68044 18.019 9.68067 17.8465 9.68C17.7834 9.67995 17.7203 9.68032 17.6572 9.68116C17.1223 9.68782 17.1223 9.68782 16.9199 9.55109C16.8627 9.50296 16.8067 9.45393 16.7517 9.40429C16.6727 9.34214 16.5934 9.28025 16.5139 9.21853C16.422 9.1455 16.3306 9.07208 16.2392 8.99873C16.1884 8.95814 16.1376 8.91756 16.0868 8.87699C15.9781 8.79008 15.8694 8.70312 15.7607 8.61612C15.5887 8.47835 15.4165 8.34072 15.2443 8.20311C14.8477 7.88616 14.4513 7.56905 14.0549 7.25192C13.6914 6.96111 13.3279 6.67034 12.9641 6.3797C12.7932 6.2431 12.6223 6.10641 12.4516 5.96966C12.3451 5.8844 12.2385 5.79921 12.1319 5.71404C12.0827 5.67476 12.0336 5.63546 11.9846 5.59611C11.7498 5.40788 11.5146 5.2219 11.261 5.04967C11.168 4.986 11.0817 4.91788 10.9958 4.84815C10.9635 4.82209 10.9312 4.79603 10.8979 4.76918C10.8655 4.74285 10.833 4.71652 10.7996 4.68939C10.7337 4.63584 10.6676 4.58236 10.6014 4.52898C10.5583 4.49398 10.5583 4.49398 10.5144 4.45828C10.4118 4.38127 10.3563 4.36846 10.2149 4.35041C9.80914 4.39219 9.48248 4.77751 9.20261 5.00371C9.12203 5.06881 9.04126 5.13376 8.96044 5.19867C8.73091 5.38302 8.50157 5.56753 8.27269 5.75239C8.13207 5.86594 7.99114 5.97922 7.84999 6.09235C7.79647 6.13534 7.74307 6.17844 7.6898 6.22163C7.61547 6.28189 7.54073 6.34181 7.46589 6.40167C7.44413 6.41947 7.42237 6.43727 7.39995 6.45561C7.19132 6.62116 7.02063 6.66597 6.72959 6.66641C6.67546 6.66666 6.62132 6.66691 6.56555 6.66717C6.50592 6.66709 6.44628 6.667 6.38665 6.66691C6.32357 6.66706 6.26049 6.66724 6.19741 6.66745C6.02636 6.66792 5.85532 6.66794 5.68427 6.66785C5.54137 6.66782 5.39847 6.66799 5.25558 6.66816C4.91842 6.66855 4.58126 6.66856 4.24411 6.66835C3.89649 6.66814 3.54889 6.66857 3.20128 6.66932C2.90261 6.66994 2.60395 6.67015 2.30528 6.67004C2.127 6.66997 1.94872 6.67007 1.77043 6.67056C1.60276 6.671 1.4351 6.67093 1.26742 6.67047C1.20598 6.67039 1.14453 6.67049 1.08309 6.67078C0.999038 6.67114 0.914981 6.6708 0.830927 6.67041C0.760454 6.67042 0.760455 6.67042 0.688558 6.67043C0.531192 6.65477 0.42611 6.61742 0.291192 6.55158C0.14684 6.36341 0.117341 6.17085 0.158802 5.95286C0.252729 5.68604 0.496996 5.52508 0.740766 5.33653C0.781411 5.30443 0.822055 5.27234 0.863932 5.23927C1.03422 5.10559 1.20559 4.97469 1.3865 4.85019C1.57635 4.71839 1.75374 4.57822 1.93055 4.43543C1.96314 4.40928 1.99574 4.38314 2.02932 4.3562C2.13223 4.27364 2.23499 4.19098 2.33772 4.10828C2.474 3.99858 2.61043 3.889 2.74695 3.77948C2.79384 3.74162 2.79384 3.74162 2.84167 3.703C2.87056 3.67983 2.89946 3.65665 2.92923 3.63278C2.95462 3.61233 2.98001 3.59187 3.00618 3.5708C3.13977 3.47238 3.25003 3.48301 3.42677 3.48269C3.48375 3.4825 3.54074 3.4823 3.59945 3.48211C3.66297 3.48207 3.72649 3.48203 3.79001 3.482C3.85662 3.48183 3.92323 3.48165 3.98984 3.48145C4.1335 3.48106 4.27716 3.48076 4.42082 3.48053C4.64797 3.48016 4.87512 3.47944 5.10227 3.47866C5.74827 3.47648 6.39427 3.47458 7.04028 3.47341C7.3969 3.47277 7.75351 3.47175 8.11013 3.47032C8.29889 3.46957 8.48765 3.46903 8.67642 3.46895C8.85402 3.46887 9.0316 3.46831 9.2092 3.46739C9.27436 3.46713 9.33953 3.46706 9.40469 3.46718C9.49369 3.46731 9.5827 3.46674 9.6717 3.46614C9.7215 3.46602 9.7713 3.4659 9.82261 3.46578C10.0361 3.4442 10.1742 3.35785 10.3206 3.23717C10.3462 3.21637 10.3717 3.19558 10.3981 3.17416C10.4241 3.15264 10.4501 3.13112 10.4769 3.10895C10.6305 2.98271 10.7837 2.8591 10.9518 2.74521C11.2384 2.5481 11.4991 2.3285 11.765 2.11402C12.3816 1.61651 12.3816 1.61651 12.653 1.43272C12.8269 1.31036 12.987 1.17612 13.1496 1.04425C13.2197 0.987401 13.2899 0.930625 13.3602 0.873937C13.3908 0.849132 13.4213 0.824327 13.4528 0.798771C13.592 0.693923 13.6918 0.70061 13.8789 0.699853Z" fill="#7261F3"/>
<path d="M6.55266 0.479775C6.5944 0.479528 6.63614 0.479281 6.67915 0.479026C6.72509 0.478934 6.77102 0.478841 6.81835 0.478745C6.86662 0.478518 6.91489 0.478291 6.96463 0.478057C7.1249 0.477375 7.28516 0.476973 7.44543 0.476628C7.52738 0.476417 7.52738 0.476417 7.61099 0.476202C7.90011 0.475481 8.18922 0.474987 8.47834 0.474664C8.77736 0.474281 9.07636 0.473093 9.37537 0.471722C9.60495 0.47082 9.83453 0.47053 10.0641 0.470406C10.1744 0.470237 10.2846 0.469835 10.3948 0.469195C10.549 0.468357 10.7032 0.468385 10.8574 0.468626C10.903 0.468183 10.9487 0.467741 10.9957 0.467285C11.1946 0.468418 11.3074 0.469948 11.4799 0.550636C11.6156 0.664847 11.6246 0.744726 11.6206 0.898798C11.5956 1.08421 11.4094 1.1954 11.2433 1.318C11.1594 1.38186 11.0821 1.44804 11.005 1.51674C10.8876 1.62069 10.7649 1.71831 10.6368 1.81465C10.5133 1.90748 10.3951 2.0011 10.2827 2.10176C10.1387 2.22963 9.98553 2.34944 9.82954 2.46875C9.80559 2.48715 9.78165 2.50555 9.75698 2.52451C9.5919 2.64984 9.51397 2.69951 9.2828 2.70073C9.24113 2.70103 9.19945 2.70132 9.15651 2.70163C9.08771 2.70185 9.08771 2.70185 9.01753 2.70208C8.96933 2.70236 8.92113 2.70264 8.87147 2.70293C8.71142 2.70379 8.55137 2.70436 8.39132 2.70486C8.33674 2.70504 8.28216 2.70523 8.22593 2.70542C7.93706 2.70634 7.64818 2.70701 7.3593 2.70751C7.06069 2.70808 6.76211 2.70963 6.46351 2.71139C6.23412 2.71255 6.00474 2.71295 5.77534 2.71314C5.66526 2.71338 5.55518 2.7139 5.44511 2.71473C5.29104 2.71582 5.13702 2.71582 4.98294 2.71557C4.93745 2.71613 4.89195 2.7167 4.84508 2.71729C4.64021 2.71589 4.49587 2.71265 4.33236 2.6125C4.19853 2.50165 4.1689 2.44311 4.16553 2.29611C4.2088 2.01804 4.65423 1.77357 4.90093 1.59014C5.14286 1.40946 5.37976 1.22898 5.6002 1.03289C5.72179 0.926971 5.85198 0.827923 5.98296 0.728797C6.00887 0.708917 6.03478 0.689037 6.06147 0.668554C6.233 0.538134 6.31225 0.480751 6.55266 0.479775Z" fill="#7261F3"/>
</svg>
