<svg width="72" height="32" viewBox="0 0 72 32" fill="none" xmlns="http://www.w3.org/2000/svg">
<g clip-path="url(#clip0_177_241)">
<path d="M41.5382 4.12781C41.7054 4.12692 41.8726 4.12603 42.0449 4.12512C42.2313 4.12466 42.4176 4.12421 42.604 4.12378C42.7994 4.12297 42.9949 4.12211 43.1903 4.12122C43.8332 4.11851 44.4761 4.11692 45.119 4.11545C45.3401 4.1149 45.5613 4.11434 45.7825 4.11378C46.7024 4.11154 47.6223 4.10961 48.5422 4.10844C49.8613 4.10676 51.1803 4.10333 52.4993 4.09744C53.4264 4.09344 54.3535 4.09141 55.2806 4.09087C55.8345 4.09049 56.3884 4.08924 56.9423 4.08589C57.4634 4.08278 57.9845 4.08212 58.5056 4.08334C58.6968 4.08337 58.888 4.08251 59.0792 4.08069C59.3404 4.07835 59.6016 4.07951 59.8627 4.08084C60.0819 4.08033 60.0819 4.08033 60.3055 4.07981C60.8266 4.16466 61.0261 4.34851 61.3629 4.6609C61.5696 4.98254 61.534 5.23627 61.4959 5.59181C61.1316 6.08334 60.6795 6.45945 60.1612 6.85057C60.0427 6.94128 60.0427 6.94128 59.9219 7.03381C59.7514 7.16423 59.5807 7.29442 59.4098 7.4244C59.1391 7.63038 58.8695 7.8372 58.6002 8.04429C57.8349 8.63271 57.0685 9.22026 56.2993 9.80567C55.828 10.1645 55.3587 10.5249 54.8905 10.8862C54.7121 11.0234 54.533 11.1599 54.3531 11.2958C54.1017 11.4859 53.8528 11.6779 53.6044 11.8704C53.4926 11.9535 53.4926 11.9535 53.3786 12.0383C53.0328 12.3101 52.8543 12.5192 52.7065 12.8859C52.7329 13.5775 53.4174 14.0249 54.0219 14.4882C54.0982 14.5475 54.1746 14.6069 54.2533 14.6681C54.508 14.8658 54.7636 15.0628 55.0192 15.2597C55.2025 15.4018 55.3857 15.5439 55.5689 15.686C55.9628 15.9914 56.3571 16.2965 56.7517 16.6013C57.3753 17.0831 57.9978 17.5658 58.6202 18.0486C60.1657 19.2474 61.7124 20.4451 63.2597 21.6424C64.4633 22.5736 65.6664 23.5052 66.8681 24.4379C67.4871 24.9181 68.1069 25.3977 68.7275 25.8767C69.1126 26.1744 69.497 26.4727 69.8811 26.7711C70.0597 26.9097 70.2387 27.0479 70.418 27.1859C70.6623 27.3739 70.9052 27.5628 71.1479 27.752C71.2196 27.8068 71.2913 27.8615 71.3652 27.9178C71.8816 28.3235 71.9797 28.5512 72.0333 29.1037C71.9938 29.557 71.8733 29.8093 71.6011 30.2092C71.1373 30.4497 70.9525 30.443 70.4043 30.4458C70.2374 30.4471 70.0706 30.4485 69.8987 30.4498C69.7135 30.4503 69.5282 30.4506 69.343 30.451C69.1482 30.4521 68.9533 30.4534 68.7585 30.4546C68.2288 30.4578 67.6991 30.4596 67.1694 30.4609C66.8383 30.4617 66.5072 30.4628 66.1761 30.4639C65.1398 30.4673 64.1034 30.4697 63.067 30.471C61.8715 30.4725 60.6762 30.477 59.4807 30.4842C58.5562 30.4895 57.6318 30.4921 56.7073 30.4926C56.1553 30.4929 55.6035 30.4945 55.0516 30.4989C54.5319 30.503 54.0125 30.5037 53.4928 30.5017C53.3026 30.5016 53.1124 30.5027 52.9223 30.5051C51.3107 30.5247 51.3107 30.5247 50.7007 30.1231C50.5285 29.9818 50.3599 29.8378 50.1939 29.692C49.956 29.5095 49.7171 29.3277 49.4775 29.1465C49.2007 28.932 48.9254 28.7163 48.6498 28.5009C48.4968 28.3817 48.3438 28.2625 48.1908 28.1434C47.8631 27.8881 47.5356 27.6327 47.2083 27.3772C46.69 26.9726 46.1711 26.5684 45.6522 26.1642C44.4572 25.2334 43.2629 24.302 42.0686 23.3707C40.9734 22.5166 39.878 21.6626 38.7821 20.809C38.267 20.4079 37.7522 20.0064 37.2378 19.6048C36.9169 19.3544 36.5957 19.1042 36.2744 18.8541C36.1264 18.7387 35.9785 18.6233 35.8307 18.5077C35.1234 17.9549 34.4146 17.4087 33.6505 16.9029C33.3702 16.7159 33.1102 16.5158 32.8515 16.311C32.7541 16.2345 32.6568 16.1579 32.5565 16.0791C32.4588 16.0017 32.3611 15.9244 32.2604 15.8447C32.0616 15.6875 31.8625 15.5304 31.6631 15.3736C31.5333 15.2709 31.5333 15.2709 31.4009 15.166C31.092 14.9398 30.9247 14.9022 30.4986 14.8492C29.2761 14.9719 28.2918 16.1035 27.4486 16.7679C27.2058 16.9591 26.9624 17.1498 26.7189 17.3404C26.0273 17.8819 25.3363 18.4238 24.6467 18.9667C24.223 19.3002 23.7984 19.6329 23.3731 19.9651C23.2118 20.0914 23.051 20.2179 22.8904 20.3448C22.6665 20.5218 22.4413 20.6978 22.2158 20.8735C22.1503 20.9258 22.0847 20.9781 22.0171 21.032C21.3885 21.5182 20.8742 21.6498 19.9973 21.6511C19.8342 21.6518 19.6711 21.6526 19.5031 21.6533C19.3234 21.6531 19.1437 21.6528 18.964 21.6525C18.774 21.653 18.5839 21.6535 18.3939 21.6541C17.8785 21.6555 17.3631 21.6556 16.8478 21.6553C16.4172 21.6552 15.9867 21.6557 15.5561 21.6562C14.5403 21.6574 13.5244 21.6574 12.5085 21.6568C11.4612 21.6562 10.4138 21.6574 9.36648 21.6596C8.4666 21.6615 7.56672 21.6621 6.66684 21.6617C6.12966 21.6616 5.5925 21.6618 5.05533 21.6633C4.55013 21.6646 4.04496 21.6644 3.53976 21.663C3.35463 21.6628 3.16949 21.663 2.98436 21.6639C2.73111 21.665 2.47784 21.664 2.22459 21.6628C2.01225 21.6629 2.01226 21.6629 1.79563 21.6629C1.32148 21.6169 1.00487 21.5072 0.598361 21.3138C0.163428 20.7612 0.0745475 20.1957 0.199469 19.5554C0.482473 18.7718 1.21845 18.2991 1.95293 17.7453C2.0754 17.6511 2.19786 17.5568 2.32403 17.4597C2.83711 17.0671 3.35347 16.6826 3.89854 16.317C4.47055 15.9299 5.00504 15.5182 5.53777 15.0989C5.63597 15.0221 5.73418 14.9453 5.83536 14.8662C6.14543 14.6237 6.45505 14.3809 6.76457 14.1381C7.1752 13.8159 7.58626 13.4941 7.9976 13.1724C8.13886 13.0612 8.13886 13.0612 8.28298 12.9478C8.37004 12.8797 8.45709 12.8117 8.54679 12.7416C8.6233 12.6815 8.69981 12.6214 8.77864 12.5596C9.18116 12.2705 9.51338 12.3017 10.0459 12.3008C10.2176 12.3002 10.3893 12.2996 10.5662 12.2991C10.7576 12.2989 10.9489 12.2988 11.1403 12.2987C11.341 12.2982 11.5417 12.2977 11.7424 12.2971C12.1753 12.296 12.6081 12.2951 13.041 12.2944C13.7254 12.2933 14.4098 12.2912 15.0942 12.2889C17.0406 12.2825 18.987 12.2769 20.9334 12.2735C22.0079 12.2716 23.0824 12.2686 24.1569 12.2644C24.7257 12.2622 25.2944 12.2606 25.8632 12.2604C26.3983 12.2602 26.9333 12.2585 27.4684 12.2558C27.6648 12.2551 27.8611 12.2549 28.0574 12.2552C28.3256 12.2556 28.5938 12.2539 28.8619 12.2522C29.012 12.2518 29.162 12.2515 29.3166 12.2511C29.9598 12.1877 30.376 11.9341 30.817 11.5797C30.8941 11.5186 30.9711 11.4576 31.0505 11.3946C31.1289 11.3314 31.2073 11.2682 31.2881 11.2031C31.7508 10.8324 32.2123 10.4694 32.719 10.1348C33.5823 9.55595 34.368 8.91102 35.169 8.2811C37.0269 6.81996 37.0269 6.81996 37.8445 6.2802C38.3686 5.92081 38.851 5.52656 39.3407 5.13929C39.552 4.97232 39.7635 4.80557 39.9754 4.63909C40.0675 4.56624 40.1596 4.49339 40.2545 4.41833C40.6737 4.1104 40.9745 4.13004 41.5382 4.12781Z" fill="white"/>
<path d="M19.5301 3.50786C19.6525 3.50712 19.775 3.50638 19.9012 3.50562C20.0359 3.50534 20.1707 3.50506 20.3096 3.50478C20.4512 3.5041 20.5928 3.50342 20.7387 3.50272C21.2089 3.50067 21.6791 3.49947 22.1493 3.49844C22.3898 3.49781 22.3898 3.49781 22.6351 3.49716C23.4833 3.495 24.3315 3.49352 25.1797 3.49255C26.057 3.49141 26.9342 3.48785 27.8115 3.48375C28.4851 3.48104 29.1586 3.48018 29.8322 3.4798C30.1556 3.4793 30.4791 3.47809 30.8025 3.47618C31.2548 3.47367 31.7071 3.47375 32.1594 3.47447C32.2934 3.47315 32.4274 3.47182 32.5654 3.47046C33.1489 3.47385 33.4798 3.47843 33.9858 3.72006C34.384 4.06209 34.4104 4.30129 34.3986 4.76268C34.3253 5.31793 33.7791 5.6509 33.2918 6.01803C33.0455 6.20928 32.8188 6.40745 32.5927 6.61319C32.2482 6.92449 31.8883 7.21682 31.5124 7.50531C31.1501 7.78332 30.8033 8.06366 30.4736 8.3651C30.0511 8.74804 29.6016 9.10681 29.144 9.46409C29.0737 9.5192 29.0035 9.57431 28.9311 9.63109C28.4468 10.0064 28.2181 10.1551 27.5399 10.1588C27.4177 10.1597 27.2954 10.1606 27.1694 10.1615C26.9676 10.1622 26.9676 10.1622 26.7617 10.1628C26.6202 10.1637 26.4788 10.1645 26.3331 10.1654C25.8636 10.168 25.394 10.1697 24.9244 10.1712C24.7643 10.1717 24.6042 10.1723 24.4392 10.1728C23.5917 10.1756 22.7442 10.1776 21.8966 10.1791C21.0206 10.1808 20.1446 10.1854 19.2685 10.1907C18.5955 10.1942 17.9225 10.1954 17.2495 10.196C16.9266 10.1967 16.6036 10.1983 16.2807 10.2007C15.8286 10.204 15.3768 10.204 14.9247 10.2032C14.7913 10.2049 14.6578 10.2066 14.5203 10.2084C13.9192 10.2042 13.4957 10.1945 13.016 9.89459C12.6234 9.56262 12.5364 9.38732 12.5266 8.94712C12.6535 8.1144 13.9603 7.38231 14.6841 6.83298C15.3939 6.29192 16.0889 5.75145 16.7357 5.16425C17.0924 4.84705 17.4744 4.55044 17.8586 4.25359C17.9347 4.19406 18.0107 4.13452 18.089 4.07319C18.5922 3.68262 18.8247 3.51078 19.5301 3.50786Z" fill="white"/>
</g>
<defs>
<clipPath id="clip0_177_241">
<rect width="72" height="32" fill="white"/>
</clipPath>
</defs>
</svg>
