<?xml version="1.0" standalone="no"?>
<!DOCTYPE svg PUBLIC "-//W3C//DTD SVG 20010904//EN"
 "http://www.w3.org/TR/2001/REC-SVG-20010904/DTD/svg10.dtd">
<svg version="1.0" xmlns="http://www.w3.org/2000/svg"
 width="1536.000000pt" height="1536.000000pt" viewBox="0 0 1536.000000 1536.000000"
 preserveAspectRatio="xMidYMid meet">
<metadata>
Created by potrace 1.14, written by Peter Selinger 2001-2017
</metadata>
<g transform="translate(0.000000,1536.000000) scale(0.100000,-0.100000)"
fill="#000000" stroke="none">
<path d="M4121 10568 c-88 -10 -143 -40 -312 -170 -129 -100 -176 -137 -263
-211 -11 -11 -41 -35 -65 -55 -25 -21 -58 -49 -75 -63 -63 -53 -284 -218 -366
-274 -139 -95 -202 -144 -268 -212 -129 -131 -139 -239 -31 -345 45 -43 102
-71 179 -86 23 -5 1757 -6 2711 -2 428 2 446 4 534 58 63 39 329 248 425 335
40 37 196 161 285 227 33 25 62 48 65 51 17 20 231 196 312 258 151 113 189
169 183 274 -5 105 -51 165 -160 204 -47 17 -128 18 -1570 18 -836 0 -1549 -3
-1584 -7z"/>
<path d="M11157 10444 c-3 -4 -543 -8 -1199 -9 -656 -1 -1209 -6 -1228 -10
-31 -6 -107 -41 -120 -55 -3 -3 -27 -24 -55 -45 -27 -22 -52 -42 -55 -45 -3
-3 -39 -32 -80 -65 -41 -33 -77 -62 -80 -65 -3 -3 -25 -21 -50 -40 -25 -19
-53 -41 -62 -49 -31 -29 -47 -41 -53 -41 -4 0 -12 -6 -20 -13 -7 -7 -46 -36
-86 -63 -41 -27 -76 -51 -79 -54 -3 -3 -21 -17 -40 -30 -19 -13 -40 -29 -47
-35 -22 -19 -38 -31 -108 -85 -38 -29 -72 -56 -75 -59 -3 -3 -61 -51 -130
-106 -69 -55 -136 -110 -150 -122 -14 -13 -28 -23 -31 -23 -3 0 -20 -12 -36
-27 -38 -35 -73 -63 -143 -116 -30 -23 -69 -53 -86 -67 -17 -14 -39 -31 -50
-38 -62 -40 -229 -163 -289 -212 -211 -170 -275 -220 -284 -220 -6 0 -11 -4
-11 -9 0 -12 -113 -58 -170 -70 -25 -5 -198 -10 -385 -10 -1800 -3 -3896 -12
-3919 -16 -51 -10 -99 -39 -206 -125 -58 -47 -107 -87 -110 -90 -3 -3 -36 -30
-75 -60 -38 -30 -72 -57 -75 -60 -3 -3 -25 -21 -50 -40 -25 -19 -47 -37 -50
-40 -3 -4 -48 -40 -100 -80 -52 -41 -101 -80 -108 -87 -8 -8 -30 -26 -50 -41
-21 -15 -39 -29 -42 -32 -8 -8 -63 -52 -96 -77 -129 -97 -166 -124 -183 -133
-11 -5 -25 -16 -33 -23 -7 -7 -44 -35 -83 -62 -38 -27 -72 -51 -75 -54 -3 -3
-41 -33 -85 -66 -44 -33 -82 -62 -85 -65 -16 -16 -150 -120 -155 -120 -26 0
-209 -192 -244 -256 -62 -112 -48 -292 31 -411 21 -31 41 -46 90 -66 35 -14
89 -30 119 -36 61 -12 4023 -9 4098 3 125 20 227 83 470 289 8 7 38 30 65 52
28 22 60 48 71 57 11 9 61 49 110 88 50 39 100 80 112 90 12 10 57 47 100 81
43 34 80 64 83 68 3 3 23 19 45 36 45 33 50 37 85 66 60 50 100 83 185 150 90
72 180 148 241 204 17 17 51 46 74 65 24 19 48 40 55 47 25 24 152 105 202
128 151 72 256 61 387 -39 39 -30 80 -63 91 -73 24 -22 119 -98 165 -133 18
-14 40 -32 50 -40 10 -8 32 -26 50 -40 19 -14 45 -34 59 -46 14 -12 36 -27 49
-33 13 -7 31 -19 40 -26 9 -8 64 -49 122 -91 58 -43 110 -83 116 -89 6 -5 23
-19 38 -30 15 -11 168 -132 340 -270 172 -137 329 -263 350 -280 129 -101 161
-128 164 -136 2 -5 8 -9 14 -9 5 0 15 -6 22 -12 7 -7 28 -25 47 -40 92 -73
177 -141 204 -163 17 -14 55 -44 85 -67 30 -23 57 -45 60 -48 3 -4 50 -42 105
-86 55 -43 107 -84 115 -91 8 -7 56 -44 105 -84 50 -39 92 -76 93 -80 2 -5 10
-9 17 -9 7 0 15 -4 17 -8 2 -4 41 -38 88 -75 47 -37 101 -80 120 -96 19 -16
85 -68 145 -116 61 -47 119 -94 130 -103 11 -10 43 -35 70 -56 28 -22 57 -47
66 -55 9 -9 26 -23 39 -31 12 -8 28 -20 34 -26 6 -5 67 -54 136 -108 69 -54
130 -105 136 -112 6 -8 15 -14 20 -14 5 0 28 -18 52 -40 24 -22 45 -40 47 -40
5 0 48 -35 77 -62 10 -10 21 -18 24 -18 3 0 11 -6 18 -13 15 -14 52 -44 161
-129 44 -35 113 -91 153 -125 87 -73 133 -99 199 -111 48 -8 1133 -7 3173 3
525 3 969 6 985 8 53 7 113 38 138 70 43 58 70 137 70 207 2 138 -25 182 -192
313 -20 15 -51 40 -70 55 -19 15 -44 35 -55 44 -12 10 -50 41 -86 69 -36 28
-66 55 -68 60 -2 5 -8 9 -13 9 -8 0 -132 96 -175 135 -6 6 -23 19 -38 30 -16
11 -33 25 -40 30 -6 6 -76 62 -156 125 -80 63 -159 125 -176 139 -17 15 -40
33 -50 41 -11 8 -58 45 -104 82 -47 37 -159 127 -250 198 -91 72 -178 142
-194 156 -15 13 -31 24 -35 24 -4 0 -17 10 -29 23 -11 12 -33 32 -49 44 -15
11 -53 41 -83 65 -30 24 -109 86 -175 138 -66 52 -127 100 -135 107 -30 25
-338 269 -370 293 -18 14 -38 30 -44 36 -6 6 -32 26 -57 46 -26 19 -53 40 -60
46 -8 7 -34 28 -59 48 -25 20 -54 43 -65 52 -11 10 -37 29 -57 44 -20 15 -42
33 -50 40 -7 7 -29 25 -50 40 -20 15 -42 33 -50 40 -11 11 -49 41 -113 90 -17
13 -99 79 -120 96 -11 10 -38 30 -60 46 -22 17 -42 32 -45 35 -12 14 -160 131
-165 131 -3 0 -16 10 -29 23 -37 36 -66 57 -75 57 -5 0 -11 4 -13 9 -3 7 -151
128 -248 201 -31 24 -121 111 -147 143 -6 8 -9 18 -6 21 4 3 2 6 -3 6 -13 0
-37 68 -36 102 1 56 100 178 191 236 14 9 32 22 39 30 8 7 30 25 50 40 21 15
42 32 48 37 6 6 26 21 44 35 36 28 228 177 275 215 66 53 204 161 230 180 16
11 41 32 58 48 16 15 32 27 36 27 3 0 20 14 38 30 18 17 35 30 38 30 3 0 16 9
28 20 12 12 72 59 132 106 61 47 123 96 139 110 15 13 32 24 36 24 5 0 10 3
12 8 2 4 32 30 68 57 35 28 89 69 118 93 29 23 60 48 69 55 40 31 193 185 193
195 0 6 5 12 10 14 17 5 23 94 10 148 -13 53 -43 90 -115 140 -75 52 -87 53
-670 51 -588 -2 -607 -2 -613 4 -3 2 -13 0 -23 -5 -11 -6 -20 -6 -24 -1 -3 6
-17 6 -34 1 -15 -4 -34 -4 -42 0 -7 5 -17 6 -22 3 -13 -8 -183 -7 -196 1 -5 4
-12 2 -15 -3 -4 -6 -18 -6 -35 -1 -16 4 -32 6 -35 3 -8 -8 -110 -8 -122 0 -6
3 -14 4 -17 1z"/>
</g>
</svg>
